<mxfile host="65bd71144e" scale="2" border="0">
    <diagram id="fxh-D0XH8hRba6O7Zr0m" name="Page-1">
        <mxGraphModel dx="1029" dy="550" grid="1" gridSize="10" guides="1" tooltips="1" connect="1" arrows="1" fold="1" page="1" pageScale="1" pageWidth="827" pageHeight="1169" math="0" shadow="0">
            <root>
                <mxCell id="0"/>
                <mxCell id="1" parent="0"/>
                <mxCell id="265lSWrMpvzl5lj750i9-39" value="" style="rounded=0;whiteSpace=wrap;html=1;dashed=1;dashPattern=1 2;fontSize=10;align=left;" parent="1" vertex="1">
                    <mxGeometry x="40" y="170" width="100" height="110" as="geometry"/>
                </mxCell>
                <mxCell id="265lSWrMpvzl5lj750i9-11" style="edgeStyle=orthogonalEdgeStyle;rounded=0;orthogonalLoop=1;jettySize=auto;html=1;exitX=1;exitY=0.5;exitDx=0;exitDy=0;entryX=0;entryY=0.5;entryDx=0;entryDy=0;endArrow=none;endFill=0;strokeColor=#b85450;fillColor=#f8cecc;" parent="1" source="265lSWrMpvzl5lj750i9-1" target="265lSWrMpvzl5lj750i9-2" edge="1">
                    <mxGeometry relative="1" as="geometry">
                        <Array as="points">
                            <mxPoint x="290" y="220"/>
                            <mxPoint x="290" y="180"/>
                            <mxPoint x="450" y="180"/>
                            <mxPoint x="450" y="220"/>
                        </Array>
                    </mxGeometry>
                </mxCell>
                <mxCell id="265lSWrMpvzl5lj750i9-20" style="edgeStyle=orthogonalEdgeStyle;rounded=0;orthogonalLoop=1;jettySize=auto;html=1;startArrow=none;startFill=0;endArrow=oval;endFill=1;strokeColor=#6c8ebf;fillColor=#dae8fc;entryX=0;entryY=0.5;entryDx=0;entryDy=0;exitX=0.75;exitY=1;exitDx=0;exitDy=0;" parent="1" source="265lSWrMpvzl5lj750i9-1" edge="1" target="265lSWrMpvzl5lj750i9-18">
                    <mxGeometry relative="1" as="geometry">
                        <mxPoint x="390" y="330" as="targetPoint"/>
                        <Array as="points">
                            <mxPoint x="310" y="250"/>
                            <mxPoint x="350" y="250"/>
                            <mxPoint x="350" y="290"/>
                        </Array>
                        <mxPoint x="320" y="240" as="sourcePoint"/>
                    </mxGeometry>
                </mxCell>
                <mxCell id="265lSWrMpvzl5lj750i9-1" value="&lt;div&gt;Delta&lt;/div&gt;&lt;div&gt;&lt;font color=&quot;#777&quot;&gt;API server&lt;/font&gt;&lt;br&gt;&lt;/div&gt;" style="rounded=0;whiteSpace=wrap;html=1;" parent="1" vertex="1">
                    <mxGeometry x="250" y="202.5" width="80" height="35" as="geometry"/>
                </mxCell>
                <mxCell id="265lSWrMpvzl5lj750i9-22" style="edgeStyle=orthogonalEdgeStyle;rounded=0;orthogonalLoop=1;jettySize=auto;html=1;exitX=0;exitY=0.5;exitDx=0;exitDy=0;entryX=1;entryY=0.5;entryDx=0;entryDy=0;startArrow=none;startFill=0;endArrow=none;endFill=0;strokeColor=#b85450;fillColor=#f8cecc;" parent="1" source="265lSWrMpvzl5lj750i9-2" target="265lSWrMpvzl5lj750i9-21" edge="1">
                    <mxGeometry relative="1" as="geometry">
                        <Array as="points">
                            <mxPoint x="450" y="220"/>
                            <mxPoint x="450" y="360"/>
                        </Array>
                    </mxGeometry>
                </mxCell>
                <mxCell id="265lSWrMpvzl5lj750i9-2" value="&lt;div&gt;MongoDB&lt;/div&gt;&lt;div&gt;&lt;font color=&quot;#777&quot;&gt;Database&lt;/font&gt;&lt;/div&gt;" style="rounded=0;whiteSpace=wrap;html=1;" parent="1" vertex="1">
                    <mxGeometry x="468" y="200" width="80" height="40" as="geometry"/>
                </mxCell>
                <mxCell id="265lSWrMpvzl5lj750i9-5" value="&lt;div&gt;Revite&lt;/div&gt;&lt;div&gt;&lt;font color=&quot;#777&quot;&gt;Web Client&lt;/font&gt;&lt;br&gt;&lt;/div&gt;" style="rounded=0;whiteSpace=wrap;html=1;" parent="1" vertex="1">
                    <mxGeometry x="250" y="340" width="80" height="40" as="geometry"/>
                </mxCell>
                <mxCell id="265lSWrMpvzl5lj750i9-10" style="edgeStyle=orthogonalEdgeStyle;rounded=0;orthogonalLoop=1;jettySize=auto;html=1;exitX=1;exitY=0.5;exitDx=0;exitDy=0;entryX=0;entryY=0.5;entryDx=0;entryDy=0;endArrow=oval;endFill=1;fillColor=#f8cecc;strokeColor=#b85450;" parent="1" source="265lSWrMpvzl5lj750i9-6" target="265lSWrMpvzl5lj750i9-2" edge="1">
                    <mxGeometry relative="1" as="geometry">
                        <Array as="points">
                            <mxPoint x="450" y="140"/>
                            <mxPoint x="450" y="220"/>
                        </Array>
                    </mxGeometry>
                </mxCell>
                <mxCell id="265lSWrMpvzl5lj750i9-14" value="" style="edgeStyle=orthogonalEdgeStyle;rounded=0;orthogonalLoop=1;jettySize=auto;html=1;endArrow=none;endFill=0;strokeColor=#d79b00;fillColor=#ffe6cc;" parent="1" source="265lSWrMpvzl5lj750i9-6" target="265lSWrMpvzl5lj750i9-13" edge="1">
                    <mxGeometry relative="1" as="geometry">
                        <Array as="points">
                            <mxPoint x="290" y="100"/>
                            <mxPoint x="255" y="100"/>
                        </Array>
                    </mxGeometry>
                </mxCell>
                <mxCell id="265lSWrMpvzl5lj750i9-6" value="&lt;div&gt;Bridge&lt;/div&gt;&lt;div&gt;&lt;font color=&quot;#777&quot;&gt; TBA&lt;/font&gt;&lt;br&gt;&lt;/div&gt;" style="rounded=0;whiteSpace=wrap;html=1;dashed=1;" parent="1" vertex="1">
                    <mxGeometry x="250" y="120" width="80" height="40" as="geometry"/>
                </mxCell>
                <mxCell id="265lSWrMpvzl5lj750i9-13" value="&lt;div&gt;Discord&lt;/div&gt;&lt;div&gt;&lt;font color=&quot;#777&quot;&gt;bot+wh&lt;/font&gt;&lt;br&gt;&lt;/div&gt;" style="whiteSpace=wrap;html=1;rounded=0;dashed=1;dashPattern=1 4;" parent="1" vertex="1">
                    <mxGeometry x="230" y="40" width="50" height="40" as="geometry"/>
                </mxCell>
                <mxCell id="265lSWrMpvzl5lj750i9-15" value="&lt;div&gt;Matrix&lt;/div&gt;&lt;div&gt;&lt;font color=&quot;#777&quot;&gt;bot&lt;/font&gt;&lt;br&gt;&lt;/div&gt;" style="whiteSpace=wrap;html=1;rounded=0;dashed=1;dashPattern=1 4;" parent="1" vertex="1">
                    <mxGeometry x="300" y="40" width="50" height="40" as="geometry"/>
                </mxCell>
                <mxCell id="265lSWrMpvzl5lj750i9-16" style="edgeStyle=orthogonalEdgeStyle;rounded=0;orthogonalLoop=1;jettySize=auto;html=1;exitX=0.5;exitY=0;exitDx=0;exitDy=0;entryX=0.5;entryY=1;entryDx=0;entryDy=0;endArrow=none;endFill=0;strokeColor=#d79b00;startArrow=oval;startFill=1;fillColor=#ffe6cc;" parent="1" source="265lSWrMpvzl5lj750i9-6" target="265lSWrMpvzl5lj750i9-15" edge="1">
                    <mxGeometry relative="1" as="geometry"/>
                </mxCell>
                <mxCell id="265lSWrMpvzl5lj750i9-17" style="edgeStyle=orthogonalEdgeStyle;rounded=0;orthogonalLoop=1;jettySize=auto;html=1;exitX=0.5;exitY=1;exitDx=0;exitDy=0;startArrow=oval;startFill=1;endArrow=none;endFill=0;strokeColor=#82b366;fillColor=#d5e8d4;entryX=0.75;entryY=0;entryDx=0;entryDy=0;" parent="1" source="2" target="265lSWrMpvzl5lj750i9-5" edge="1">
                    <mxGeometry relative="1" as="geometry">
                        <mxPoint x="310" y="280" as="targetPoint"/>
                        <Array as="points">
                            <mxPoint x="390" y="260"/>
                            <mxPoint x="310" y="260"/>
                        </Array>
                    </mxGeometry>
                </mxCell>
                <mxCell id="265lSWrMpvzl5lj750i9-18" value="&lt;div&gt;January&lt;/div&gt;&lt;div&gt;&lt;font color=&quot;#777&quot;&gt;Proxy&lt;/font&gt;&lt;br&gt;&lt;/div&gt;" style="rounded=0;whiteSpace=wrap;html=1;" parent="1" vertex="1">
                    <mxGeometry x="370" y="270" width="60" height="40" as="geometry"/>
                </mxCell>
                <mxCell id="265lSWrMpvzl5lj750i9-19" style="edgeStyle=orthogonalEdgeStyle;rounded=0;orthogonalLoop=1;jettySize=auto;html=1;exitX=1;exitY=0.5;exitDx=0;exitDy=0;entryX=0;entryY=0.5;entryDx=0;entryDy=0;startArrow=none;startFill=0;endArrow=oval;endFill=1;strokeColor=#6c8ebf;fillColor=#dae8fc;" parent="1" source="265lSWrMpvzl5lj750i9-5" target="265lSWrMpvzl5lj750i9-18" edge="1">
                    <mxGeometry relative="1" as="geometry">
                        <Array as="points">
                            <mxPoint x="350" y="360"/>
                            <mxPoint x="350" y="290"/>
                        </Array>
                    </mxGeometry>
                </mxCell>
                <mxCell id="265lSWrMpvzl5lj750i9-21" value="&lt;div&gt;Autumn&lt;/div&gt;&lt;div&gt;&lt;font color=&quot;#777&quot;&gt;File Server&lt;/font&gt;&lt;br&gt;&lt;/div&gt;" style="rounded=0;whiteSpace=wrap;html=1;" parent="1" vertex="1">
                    <mxGeometry x="365" y="340" width="70" height="40" as="geometry"/>
                </mxCell>
                <mxCell id="265lSWrMpvzl5lj750i9-23" style="edgeStyle=orthogonalEdgeStyle;rounded=0;orthogonalLoop=1;jettySize=auto;html=1;entryX=0;entryY=0.5;entryDx=0;entryDy=0;startArrow=none;startFill=0;endArrow=oval;endFill=1;strokeColor=#6c8ebf;fillColor=#dae8fc;" parent="1" target="265lSWrMpvzl5lj750i9-21" edge="1">
                    <mxGeometry relative="1" as="geometry">
                        <Array as="points"/>
                        <mxPoint x="330" y="360" as="sourcePoint"/>
                    </mxGeometry>
                </mxCell>
                <mxCell id="265lSWrMpvzl5lj750i9-24" value="&lt;div&gt;Redis&lt;/div&gt;&lt;div&gt;&lt;font color=&quot;#777&quot;&gt; Message Broker&lt;/font&gt;&lt;br&gt;&lt;/div&gt;" style="rounded=0;whiteSpace=wrap;html=1;" parent="1" vertex="1">
                    <mxGeometry x="460" y="120" width="96" height="40" as="geometry"/>
                </mxCell>
                <mxCell id="265lSWrMpvzl5lj750i9-25" value="&lt;div&gt;Vortex&lt;/div&gt;&lt;div&gt;&lt;font color=&quot;#777&quot;&gt;Voice&lt;/font&gt;&lt;br&gt;&lt;/div&gt;" style="rounded=0;whiteSpace=wrap;html=1;" parent="1" vertex="1">
                    <mxGeometry x="160" y="200" width="60" height="40" as="geometry"/>
                </mxCell>
                <mxCell id="265lSWrMpvzl5lj750i9-27" style="edgeStyle=orthogonalEdgeStyle;rounded=0;orthogonalLoop=1;jettySize=auto;html=1;exitX=0;exitY=0.5;exitDx=0;exitDy=0;entryX=1;entryY=0.5;entryDx=0;entryDy=0;startArrow=none;startFill=0;endArrow=oval;endFill=1;strokeColor=#6c8ebf;fillColor=#dae8fc;" parent="1" source="265lSWrMpvzl5lj750i9-1" target="265lSWrMpvzl5lj750i9-25" edge="1">
                    <mxGeometry relative="1" as="geometry"/>
                </mxCell>
                <mxCell id="265lSWrMpvzl5lj750i9-28" style="edgeStyle=orthogonalEdgeStyle;rounded=0;orthogonalLoop=1;jettySize=auto;html=1;exitX=0;exitY=0.5;exitDx=0;exitDy=0;entryX=0.5;entryY=1;entryDx=0;entryDy=0;startArrow=none;startFill=0;endArrow=oval;endFill=1;strokeColor=#b85450;fillColor=#f8cecc;" parent="1" source="265lSWrMpvzl5lj750i9-5" target="265lSWrMpvzl5lj750i9-25" edge="1">
                    <mxGeometry relative="1" as="geometry"/>
                </mxCell>
                <mxCell id="265lSWrMpvzl5lj750i9-30" value="External" style="text;html=1;strokeColor=none;fillColor=none;align=left;verticalAlign=middle;whiteSpace=wrap;rounded=0;dashed=1;dashPattern=1 4;fontSize=10;" parent="1" vertex="1">
                    <mxGeometry x="80" y="180" width="60" height="20" as="geometry"/>
                </mxCell>
                <mxCell id="265lSWrMpvzl5lj750i9-32" value="" style="endArrow=none;html=1;fontSize=10;strokeColor=#d79b00;fillColor=#ffe6cc;" parent="1" edge="1">
                    <mxGeometry width="50" height="50" relative="1" as="geometry">
                        <mxPoint x="50" y="190" as="sourcePoint"/>
                        <mxPoint x="70" y="190" as="targetPoint"/>
                    </mxGeometry>
                </mxCell>
                <mxCell id="265lSWrMpvzl5lj750i9-33" value="Other" style="text;html=1;strokeColor=none;fillColor=none;align=left;verticalAlign=middle;whiteSpace=wrap;rounded=0;dashed=1;dashPattern=1 4;fontSize=10;" parent="1" vertex="1">
                    <mxGeometry x="80" y="240" width="60" height="30" as="geometry"/>
                </mxCell>
                <mxCell id="265lSWrMpvzl5lj750i9-34" value="" style="endArrow=none;html=1;fontSize=10;strokeColor=#b85450;fillColor=#f8cecc;" parent="1" edge="1">
                    <mxGeometry width="50" height="50" relative="1" as="geometry">
                        <mxPoint x="50" y="250" as="sourcePoint"/>
                        <mxPoint x="70" y="250" as="targetPoint"/>
                    </mxGeometry>
                </mxCell>
                <mxCell id="265lSWrMpvzl5lj750i9-35" value="HTTP" style="text;html=1;strokeColor=none;fillColor=none;align=left;verticalAlign=middle;whiteSpace=wrap;rounded=0;dashed=1;dashPattern=1 4;fontSize=10;" parent="1" vertex="1">
                    <mxGeometry x="80" y="200" width="60" height="20" as="geometry"/>
                </mxCell>
                <mxCell id="265lSWrMpvzl5lj750i9-36" value="" style="endArrow=none;html=1;fontSize=10;strokeColor=#6c8ebf;fillColor=#dae8fc;" parent="1" edge="1">
                    <mxGeometry width="50" height="50" relative="1" as="geometry">
                        <mxPoint x="50" y="210" as="sourcePoint"/>
                        <mxPoint x="70" y="210" as="targetPoint"/>
                    </mxGeometry>
                </mxCell>
                <mxCell id="265lSWrMpvzl5lj750i9-37" value="WS" style="text;html=1;strokeColor=none;fillColor=none;align=left;verticalAlign=middle;whiteSpace=wrap;rounded=0;dashed=1;dashPattern=1 4;fontSize=10;" parent="1" vertex="1">
                    <mxGeometry x="80" y="220" width="60" height="20" as="geometry"/>
                </mxCell>
                <mxCell id="265lSWrMpvzl5lj750i9-38" value="" style="endArrow=none;html=1;fontSize=10;strokeColor=#82b366;fillColor=#d5e8d4;" parent="1" edge="1">
                    <mxGeometry width="50" height="50" relative="1" as="geometry">
                        <mxPoint x="50" y="230" as="sourcePoint"/>
                        <mxPoint x="70" y="230" as="targetPoint"/>
                    </mxGeometry>
                </mxCell>
                <mxCell id="265lSWrMpvzl5lj750i9-40" value="&lt;u&gt;Legend&lt;/u&gt;" style="text;html=1;strokeColor=none;fillColor=none;align=right;verticalAlign=middle;whiteSpace=wrap;rounded=0;dashed=1;dashPattern=1 2;fontSize=10;" parent="1" vertex="1">
                    <mxGeometry x="100" y="40" width="40" height="20" as="geometry"/>
                </mxCell>
                <mxCell id="265lSWrMpvzl5lj750i9-41" value="External Service" style="rounded=0;whiteSpace=wrap;html=1;dashed=1;dashPattern=1 2;fontSize=10;align=right;" parent="1" vertex="1">
                    <mxGeometry x="50" y="70" width="90" height="20" as="geometry"/>
                </mxCell>
                <mxCell id="265lSWrMpvzl5lj750i9-42" value="Planned Feature" style="rounded=0;whiteSpace=wrap;html=1;dashed=1;fontSize=10;align=right;" parent="1" vertex="1">
                    <mxGeometry x="50" y="100" width="90" height="20" as="geometry"/>
                </mxCell>
                <mxCell id="265lSWrMpvzl5lj750i9-43" value="Service" style="rounded=0;whiteSpace=wrap;html=1;fontSize=10;align=right;" parent="1" vertex="1">
                    <mxGeometry x="50" y="130" width="90" height="20" as="geometry"/>
                </mxCell>
                <mxCell id="zU7JRTu8Ajt6ysH1inbm-1" style="edgeStyle=orthogonalEdgeStyle;rounded=0;orthogonalLoop=1;jettySize=auto;html=1;fillColor=#e1d5e7;strokeColor=#9673a6;endArrow=none;endFill=0;startArrow=oval;startFill=1;entryX=0.75;entryY=0;entryDx=0;entryDy=0;" parent="1" source="265lSWrMpvzl5lj750i9-24" target="265lSWrMpvzl5lj750i9-1" edge="1">
                    <mxGeometry relative="1" as="geometry">
                        <Array as="points">
                            <mxPoint x="508" y="190"/>
                            <mxPoint x="310" y="190"/>
                        </Array>
                        <mxPoint x="310" y="200" as="targetPoint"/>
                    </mxGeometry>
                </mxCell>
                <mxCell id="zU7JRTu8Ajt6ysH1inbm-2" value="" style="endArrow=none;html=1;fontSize=10;strokeColor=#9673a6;fillColor=#e1d5e7;" parent="1" edge="1">
                    <mxGeometry width="50" height="50" relative="1" as="geometry">
                        <mxPoint x="50" y="260" as="sourcePoint"/>
                        <mxPoint x="70" y="260" as="targetPoint"/>
                    </mxGeometry>
                </mxCell>
                <mxCell id="2" value="&lt;div&gt;Bonfire&lt;/div&gt;&lt;div&gt;&lt;font color=&quot;#777&quot;&gt;WS server&lt;/font&gt;&lt;br&gt;&lt;/div&gt;" style="rounded=0;whiteSpace=wrap;html=1;" vertex="1" parent="1">
                    <mxGeometry x="350" y="202.87" width="80" height="34.25" as="geometry"/>
                </mxCell>
                <mxCell id="3" style="edgeStyle=orthogonalEdgeStyle;rounded=0;orthogonalLoop=1;jettySize=auto;html=1;exitX=0.5;exitY=0;exitDx=0;exitDy=0;entryX=0.5;entryY=1;entryDx=0;entryDy=0;startArrow=none;startFill=0;endArrow=oval;endFill=1;strokeColor=#6c8ebf;fillColor=#dae8fc;" edge="1" parent="1" source="265lSWrMpvzl5lj750i9-5" target="265lSWrMpvzl5lj750i9-1">
                    <mxGeometry relative="1" as="geometry">
                        <mxPoint x="260" y="230" as="sourcePoint"/>
                        <mxPoint x="230" y="230" as="targetPoint"/>
                    </mxGeometry>
                </mxCell>
                <mxCell id="4" style="edgeStyle=orthogonalEdgeStyle;rounded=0;orthogonalLoop=1;jettySize=auto;html=1;fillColor=#e1d5e7;strokeColor=#9673a6;endArrow=none;endFill=0;startArrow=oval;startFill=1;entryX=0.5;entryY=0;entryDx=0;entryDy=0;exitX=0.5;exitY=1;exitDx=0;exitDy=0;" edge="1" parent="1" source="265lSWrMpvzl5lj750i9-24" target="2">
                    <mxGeometry relative="1" as="geometry">
                        <Array as="points">
                            <mxPoint x="508" y="190"/>
                            <mxPoint x="390" y="190"/>
                        </Array>
                        <mxPoint x="517.969696969697" y="170" as="sourcePoint"/>
                        <mxPoint x="320" y="212.5" as="targetPoint"/>
                    </mxGeometry>
                </mxCell>
            </root>
        </mxGraphModel>
    </diagram>
</mxfile>